<mxfile host="app.diagrams.net" modified="2023-04-14T08:16:59.400Z" agent="Mozilla/5.0 (Macintosh; Intel Mac OS X 10.15; rv:109.0) Gecko/20100101 Firefox/111.0" etag="R9-q3k56gCWgIM4mrZIT" version="21.1.7" type="github">
  <diagram name="Final State Machine" id="Ba7436QLJbThtLxYU6n6">
    <mxGraphModel dx="1236" dy="737" grid="1" gridSize="10" guides="1" tooltips="1" connect="1" arrows="1" fold="1" page="1" pageScale="1" pageWidth="850" pageHeight="1100" math="0" shadow="0">
      <root>
        <mxCell id="0" />
        <mxCell id="1" parent="0" />
        <mxCell id="6i5JkS_G5Znk1qNWYGiz-157" value="" style="group" parent="1" vertex="1" connectable="0">
          <mxGeometry x="350" y="1170" width="940" height="550" as="geometry" />
        </mxCell>
        <mxCell id="6i5JkS_G5Znk1qNWYGiz-145" value="" style="group" parent="6i5JkS_G5Znk1qNWYGiz-157" vertex="1" connectable="0">
          <mxGeometry x="340" y="195" width="600" height="355" as="geometry" />
        </mxCell>
        <mxCell id="6i5JkS_G5Znk1qNWYGiz-70" value="" style="rounded=0;whiteSpace=wrap;html=1;movable=1;resizable=1;rotatable=1;deletable=1;editable=1;connectable=1;container=0;" parent="6i5JkS_G5Znk1qNWYGiz-145" vertex="1">
          <mxGeometry width="600" height="355" as="geometry" />
        </mxCell>
        <mxCell id="6i5JkS_G5Znk1qNWYGiz-74" value="ParseCommand" style="text;html=1;strokeColor=none;fillColor=none;align=center;verticalAlign=middle;whiteSpace=wrap;rounded=0;container=0;" parent="6i5JkS_G5Znk1qNWYGiz-145" vertex="1">
          <mxGeometry x="20" y="10.14" width="100" height="19.86" as="geometry" />
        </mxCell>
        <mxCell id="6i5JkS_G5Znk1qNWYGiz-87" value="if None" style="text;html=1;strokeColor=none;fillColor=none;align=center;verticalAlign=middle;whiteSpace=wrap;rounded=0;container=0;" parent="6i5JkS_G5Znk1qNWYGiz-145" vertex="1">
          <mxGeometry x="260" y="30.428571428571374" width="60" height="30.428571428571427" as="geometry" />
        </mxCell>
        <mxCell id="6i5JkS_G5Znk1qNWYGiz-89" value="RightBracket" style="ellipse;whiteSpace=wrap;html=1;container=0;" parent="6i5JkS_G5Znk1qNWYGiz-145" vertex="1">
          <mxGeometry x="30" y="152.1428571428571" width="90" height="60.857142857142854" as="geometry" />
        </mxCell>
        <mxCell id="6i5JkS_G5Znk1qNWYGiz-91" style="edgeStyle=orthogonalEdgeStyle;rounded=0;orthogonalLoop=1;jettySize=auto;html=1;entryX=0.5;entryY=0;entryDx=0;entryDy=0;" parent="6i5JkS_G5Znk1qNWYGiz-145" source="6i5JkS_G5Znk1qNWYGiz-77" target="6i5JkS_G5Znk1qNWYGiz-89" edge="1">
          <mxGeometry relative="1" as="geometry" />
        </mxCell>
        <mxCell id="6i5JkS_G5Znk1qNWYGiz-92" value="if &lt;i&gt;c&lt;/i&gt; is &#39;}&#39;" style="text;html=1;strokeColor=none;fillColor=none;align=center;verticalAlign=middle;whiteSpace=wrap;rounded=0;container=0;" parent="6i5JkS_G5Znk1qNWYGiz-145" vertex="1">
          <mxGeometry x="20" y="60.85714285714287" width="60" height="30.428571428571427" as="geometry" />
        </mxCell>
        <mxCell id="6i5JkS_G5Znk1qNWYGiz-97" value="if &lt;i&gt;depth&lt;/i&gt; &amp;gt; 0" style="text;html=1;strokeColor=none;fillColor=none;align=center;verticalAlign=middle;whiteSpace=wrap;rounded=0;container=0;" parent="6i5JkS_G5Znk1qNWYGiz-145" vertex="1">
          <mxGeometry x="75" y="219.08571428571426" width="70" height="30.428571428571427" as="geometry" />
        </mxCell>
        <mxCell id="6i5JkS_G5Znk1qNWYGiz-103" value="if &lt;i&gt;c&lt;/i&gt; is &#39;{&#39;" style="text;html=1;strokeColor=none;fillColor=none;align=center;verticalAlign=middle;whiteSpace=wrap;rounded=0;container=0;" parent="6i5JkS_G5Znk1qNWYGiz-145" vertex="1">
          <mxGeometry x="110" y="101.42857142857149" width="54" height="30.428571428571427" as="geometry" />
        </mxCell>
        <mxCell id="6i5JkS_G5Znk1qNWYGiz-113" value="send &#39;}&#39;" style="text;html=1;strokeColor=none;fillColor=none;align=center;verticalAlign=middle;whiteSpace=wrap;rounded=0;container=0;" parent="6i5JkS_G5Znk1qNWYGiz-145" vertex="1">
          <mxGeometry x="180" y="263.7142857142857" width="60" height="30.428571428571427" as="geometry" />
        </mxCell>
        <mxCell id="6i5JkS_G5Znk1qNWYGiz-114" value="&lt;div&gt;send &#39;{&#39;&lt;/div&gt;" style="text;html=1;strokeColor=none;fillColor=none;align=center;verticalAlign=middle;whiteSpace=wrap;rounded=0;container=0;" parent="6i5JkS_G5Znk1qNWYGiz-145" vertex="1">
          <mxGeometry x="240" y="213" width="60" height="30.428571428571427" as="geometry" />
        </mxCell>
        <mxCell id="6i5JkS_G5Znk1qNWYGiz-115" style="edgeStyle=orthogonalEdgeStyle;rounded=0;orthogonalLoop=1;jettySize=auto;html=1;exitX=0;exitY=0;exitDx=0;exitDy=0;" parent="6i5JkS_G5Znk1qNWYGiz-145" source="6i5JkS_G5Znk1qNWYGiz-105" edge="1">
          <mxGeometry relative="1" as="geometry">
            <mxPoint x="200" y="91.28571428571425" as="targetPoint" />
          </mxGeometry>
        </mxCell>
        <mxCell id="6i5JkS_G5Znk1qNWYGiz-96" style="edgeStyle=orthogonalEdgeStyle;rounded=0;orthogonalLoop=1;jettySize=auto;html=1;exitX=0.5;exitY=1;exitDx=0;exitDy=0;" parent="6i5JkS_G5Znk1qNWYGiz-145" source="6i5JkS_G5Znk1qNWYGiz-89" target="6i5JkS_G5Znk1qNWYGiz-95" edge="1">
          <mxGeometry relative="1" as="geometry" />
        </mxCell>
        <mxCell id="6i5JkS_G5Znk1qNWYGiz-142" value="send &lt;i&gt;c&lt;/i&gt;" style="text;html=1;strokeColor=none;fillColor=none;align=center;verticalAlign=middle;whiteSpace=wrap;rounded=0;fontSize=12;container=0;" parent="6i5JkS_G5Znk1qNWYGiz-145" vertex="1">
          <mxGeometry x="320" y="81.14285714285712" width="60" height="30.428571428571427" as="geometry" />
        </mxCell>
        <mxCell id="6i5JkS_G5Znk1qNWYGiz-77" value="&lt;div&gt;GetChar&lt;/div&gt;" style="ellipse;whiteSpace=wrap;html=1;container=0;" parent="6i5JkS_G5Znk1qNWYGiz-145" vertex="1">
          <mxGeometry x="150" y="30.428571428571374" width="80" height="60.857142857142854" as="geometry" />
        </mxCell>
        <mxCell id="6i5JkS_G5Znk1qNWYGiz-78" value="&lt;div&gt;&lt;br&gt;&lt;/div&gt;&lt;div&gt;&lt;i&gt;c&lt;/i&gt;&lt;/div&gt;" style="shape=note;whiteSpace=wrap;html=1;backgroundOutline=1;darkOpacity=0.05;size=12;container=0;" parent="6i5JkS_G5Znk1qNWYGiz-145" vertex="1">
          <mxGeometry x="206" y="20.28571428571425" width="24" height="30.428571428571427" as="geometry" />
        </mxCell>
        <mxCell id="6i5JkS_G5Znk1qNWYGiz-105" value="Append" style="ellipse;whiteSpace=wrap;html=1;container=0;" parent="6i5JkS_G5Znk1qNWYGiz-145" vertex="1">
          <mxGeometry x="286" y="131.85714285714286" width="80" height="60.85714285714286" as="geometry" />
        </mxCell>
        <mxCell id="6i5JkS_G5Znk1qNWYGiz-107" style="edgeStyle=orthogonalEdgeStyle;rounded=0;orthogonalLoop=1;jettySize=auto;html=1;exitX=1;exitY=1;exitDx=0;exitDy=0;" parent="6i5JkS_G5Znk1qNWYGiz-145" source="6i5JkS_G5Znk1qNWYGiz-77" target="6i5JkS_G5Znk1qNWYGiz-105" edge="1">
          <mxGeometry relative="1" as="geometry" />
        </mxCell>
        <mxCell id="6i5JkS_G5Znk1qNWYGiz-106" value="&lt;i&gt;c&lt;/i&gt;" style="shape=step;perimeter=stepPerimeter;whiteSpace=wrap;html=1;fixedSize=1;size=10.000000000000227;container=0;" parent="6i5JkS_G5Znk1qNWYGiz-145" vertex="1">
          <mxGeometry x="280" y="175.47142857142856" width="40" height="30.42857142857143" as="geometry" />
        </mxCell>
        <mxCell id="6i5JkS_G5Znk1qNWYGiz-125" value="States marked with this icon consumes a character &lt;i&gt;c&lt;/i&gt; from input." style="text;html=1;strokeColor=none;fillColor=none;align=left;verticalAlign=middle;whiteSpace=wrap;rounded=0;container=0;" parent="6i5JkS_G5Znk1qNWYGiz-145" vertex="1">
          <mxGeometry x="440" y="40.57142857142862" width="130" height="40.57142857142857" as="geometry" />
        </mxCell>
        <mxCell id="6i5JkS_G5Znk1qNWYGiz-126" value="&lt;div&gt;&lt;br&gt;&lt;/div&gt;&lt;div&gt;&lt;i&gt;c&lt;/i&gt;&lt;/div&gt;" style="shape=note;whiteSpace=wrap;html=1;backgroundOutline=1;darkOpacity=0.05;size=12;container=0;" parent="6i5JkS_G5Znk1qNWYGiz-145" vertex="1">
          <mxGeometry x="406" y="45.642857142857245" width="24" height="30.428571428571423" as="geometry" />
        </mxCell>
        <mxCell id="6i5JkS_G5Znk1qNWYGiz-130" value="&lt;div&gt;States marked with this icon appends a character &lt;i&gt;c&lt;/i&gt; to &lt;i&gt;output&lt;/i&gt;.&lt;br&gt;&lt;/div&gt;" style="text;html=1;strokeColor=none;fillColor=none;align=left;verticalAlign=middle;whiteSpace=wrap;rounded=0;container=0;" parent="6i5JkS_G5Znk1qNWYGiz-145" vertex="1">
          <mxGeometry x="440" y="101.42857142857149" width="130" height="60.857142857142854" as="geometry" />
        </mxCell>
        <mxCell id="6i5JkS_G5Znk1qNWYGiz-131" value="&lt;i&gt;c&lt;/i&gt;" style="shape=step;perimeter=stepPerimeter;whiteSpace=wrap;html=1;fixedSize=1;size=10.000000000000227;container=0;" parent="6i5JkS_G5Znk1qNWYGiz-145" vertex="1">
          <mxGeometry x="390" y="116.64285714285724" width="40" height="30.428571428571427" as="geometry" />
        </mxCell>
        <mxCell id="6i5JkS_G5Znk1qNWYGiz-99" value="IncrementDepth" style="ellipse;whiteSpace=wrap;html=1;container=0;" parent="6i5JkS_G5Znk1qNWYGiz-145" vertex="1">
          <mxGeometry x="135" y="170.39999999999995" width="110" height="60.857142857142854" as="geometry" />
        </mxCell>
        <mxCell id="6i5JkS_G5Znk1qNWYGiz-100" style="edgeStyle=orthogonalEdgeStyle;rounded=0;orthogonalLoop=1;jettySize=auto;html=1;exitX=0;exitY=1;exitDx=0;exitDy=0;entryX=0.243;entryY=0.07;entryDx=0;entryDy=0;entryPerimeter=0;" parent="6i5JkS_G5Znk1qNWYGiz-145" source="6i5JkS_G5Znk1qNWYGiz-77" target="6i5JkS_G5Znk1qNWYGiz-99" edge="1">
          <mxGeometry relative="1" as="geometry" />
        </mxCell>
        <mxCell id="6i5JkS_G5Znk1qNWYGiz-110" style="edgeStyle=orthogonalEdgeStyle;rounded=0;orthogonalLoop=1;jettySize=auto;html=1;exitX=0.5;exitY=1;exitDx=0;exitDy=0;entryX=0.5;entryY=1;entryDx=0;entryDy=0;" parent="6i5JkS_G5Znk1qNWYGiz-145" source="6i5JkS_G5Znk1qNWYGiz-99" target="6i5JkS_G5Znk1qNWYGiz-105" edge="1">
          <mxGeometry relative="1" as="geometry">
            <Array as="points">
              <mxPoint x="190" y="243.42857142857147" />
              <mxPoint x="326" y="243.42857142857147" />
            </Array>
          </mxGeometry>
        </mxCell>
        <mxCell id="6i5JkS_G5Znk1qNWYGiz-116" value="&lt;font style=&quot;font-size: 24px;&quot;&gt;+&lt;/font&gt;" style="ellipse;whiteSpace=wrap;html=1;aspect=fixed;container=0;" parent="6i5JkS_G5Znk1qNWYGiz-145" vertex="1">
          <mxGeometry x="200" y="153.6642857142857" width="28.714285714285715" height="28.714285714285715" as="geometry" />
        </mxCell>
        <mxCell id="6i5JkS_G5Znk1qNWYGiz-95" value="DecrementDepth" style="ellipse;whiteSpace=wrap;html=1;container=0;" parent="6i5JkS_G5Znk1qNWYGiz-145" vertex="1">
          <mxGeometry x="20" y="263.7142857142857" width="110" height="60.857142857142854" as="geometry" />
        </mxCell>
        <mxCell id="6i5JkS_G5Znk1qNWYGiz-112" style="edgeStyle=orthogonalEdgeStyle;rounded=0;orthogonalLoop=1;jettySize=auto;html=1;exitX=1;exitY=0.5;exitDx=0;exitDy=0;entryX=0.5;entryY=1;entryDx=0;entryDy=0;" parent="6i5JkS_G5Znk1qNWYGiz-145" source="6i5JkS_G5Znk1qNWYGiz-95" target="6i5JkS_G5Znk1qNWYGiz-105" edge="1">
          <mxGeometry relative="1" as="geometry" />
        </mxCell>
        <mxCell id="6i5JkS_G5Znk1qNWYGiz-117" value="&lt;font style=&quot;font-size: 24px;&quot;&gt;-&lt;/font&gt;" style="ellipse;whiteSpace=wrap;html=1;aspect=fixed;container=0;" parent="6i5JkS_G5Znk1qNWYGiz-145" vertex="1">
          <mxGeometry x="90" y="253.5714285714286" width="28.714285714285715" height="28.714285714285715" as="geometry" />
        </mxCell>
        <mxCell id="6i5JkS_G5Znk1qNWYGiz-132" value="&lt;font style=&quot;font-size: 24px;&quot;&gt;+&lt;/font&gt;" style="ellipse;whiteSpace=wrap;html=1;aspect=fixed;container=0;" parent="6i5JkS_G5Znk1qNWYGiz-145" vertex="1">
          <mxGeometry x="400" y="192.71428571428575" width="28.714285714285715" height="28.714285714285715" as="geometry" />
        </mxCell>
        <mxCell id="6i5JkS_G5Znk1qNWYGiz-137" value="States marked with this icon increments &lt;i&gt;depth&lt;/i&gt; by one." style="text;html=1;strokeColor=none;fillColor=none;align=left;verticalAlign=middle;whiteSpace=wrap;rounded=0;fontSize=12;container=0;" parent="6i5JkS_G5Znk1qNWYGiz-145" vertex="1">
          <mxGeometry x="440" y="192.71428571428575" width="130" height="30.428571428571427" as="geometry" />
        </mxCell>
        <mxCell id="6i5JkS_G5Znk1qNWYGiz-133" value="&lt;font style=&quot;font-size: 24px;&quot;&gt;-&lt;/font&gt;" style="ellipse;whiteSpace=wrap;html=1;aspect=fixed;container=0;" parent="6i5JkS_G5Znk1qNWYGiz-145" vertex="1">
          <mxGeometry x="400" y="263.7142857142857" width="28.714285714285715" height="28.714285714285715" as="geometry" />
        </mxCell>
        <mxCell id="6i5JkS_G5Znk1qNWYGiz-138" value="States marked with this icon decrements &lt;i&gt;depth&lt;/i&gt; by one." style="text;html=1;strokeColor=none;fillColor=none;align=left;verticalAlign=middle;whiteSpace=wrap;rounded=0;fontSize=12;container=0;" parent="6i5JkS_G5Znk1qNWYGiz-145" vertex="1">
          <mxGeometry x="440" y="263.7142857142857" width="130" height="30.428571428571427" as="geometry" />
        </mxCell>
        <mxCell id="6i5JkS_G5Znk1qNWYGiz-64" value="ParseText" style="whiteSpace=wrap;html=1;aspect=fixed;" parent="6i5JkS_G5Znk1qNWYGiz-157" vertex="1">
          <mxGeometry x="150" y="75" width="80" height="80" as="geometry" />
        </mxCell>
        <mxCell id="6i5JkS_G5Znk1qNWYGiz-86" style="edgeStyle=orthogonalEdgeStyle;rounded=0;orthogonalLoop=1;jettySize=auto;html=1;exitX=0.5;exitY=1;exitDx=0;exitDy=0;entryX=0.5;entryY=0;entryDx=0;entryDy=0;" parent="6i5JkS_G5Znk1qNWYGiz-157" source="6i5JkS_G5Znk1qNWYGiz-65" target="6i5JkS_G5Znk1qNWYGiz-77" edge="1">
          <mxGeometry relative="1" as="geometry" />
        </mxCell>
        <mxCell id="6i5JkS_G5Znk1qNWYGiz-65" value="StoreTextChunk" style="ellipse;whiteSpace=wrap;html=1;" parent="6i5JkS_G5Znk1qNWYGiz-157" vertex="1">
          <mxGeometry x="470" y="75" width="120" height="80" as="geometry" />
        </mxCell>
        <mxCell id="6i5JkS_G5Znk1qNWYGiz-66" style="edgeStyle=orthogonalEdgeStyle;rounded=0;orthogonalLoop=1;jettySize=auto;html=1;exitX=1;exitY=0.5;exitDx=0;exitDy=0;entryX=0;entryY=0.5;entryDx=0;entryDy=0;" parent="6i5JkS_G5Znk1qNWYGiz-157" source="6i5JkS_G5Znk1qNWYGiz-64" target="6i5JkS_G5Znk1qNWYGiz-65" edge="1">
          <mxGeometry relative="1" as="geometry" />
        </mxCell>
        <mxCell id="6i5JkS_G5Znk1qNWYGiz-67" value="send &lt;i&gt;output&lt;/i&gt;" style="text;html=1;strokeColor=none;fillColor=none;align=center;verticalAlign=middle;whiteSpace=wrap;rounded=0;" parent="6i5JkS_G5Znk1qNWYGiz-157" vertex="1">
          <mxGeometry x="320" y="85" width="70" height="30" as="geometry" />
        </mxCell>
        <mxCell id="6i5JkS_G5Znk1qNWYGiz-69" style="edgeStyle=orthogonalEdgeStyle;rounded=0;orthogonalLoop=1;jettySize=auto;html=1;" parent="6i5JkS_G5Znk1qNWYGiz-157" source="6i5JkS_G5Znk1qNWYGiz-68" target="6i5JkS_G5Znk1qNWYGiz-64" edge="1">
          <mxGeometry relative="1" as="geometry" />
        </mxCell>
        <mxCell id="6i5JkS_G5Znk1qNWYGiz-68" value="StoreCommandChunk" style="ellipse;whiteSpace=wrap;html=1;" parent="6i5JkS_G5Znk1qNWYGiz-157" vertex="1">
          <mxGeometry x="120" y="215" width="140" height="80" as="geometry" />
        </mxCell>
        <mxCell id="6i5JkS_G5Znk1qNWYGiz-71" value="NoClosingBracket" style="ellipse;whiteSpace=wrap;html=1;" parent="6i5JkS_G5Znk1qNWYGiz-157" vertex="1">
          <mxGeometry x="630" y="75" width="120" height="80" as="geometry" />
        </mxCell>
        <mxCell id="6i5JkS_G5Znk1qNWYGiz-85" style="edgeStyle=orthogonalEdgeStyle;rounded=0;orthogonalLoop=1;jettySize=auto;html=1;exitX=1;exitY=0.5;exitDx=0;exitDy=0;entryX=0.5;entryY=1;entryDx=0;entryDy=0;" parent="6i5JkS_G5Znk1qNWYGiz-157" source="6i5JkS_G5Znk1qNWYGiz-77" target="6i5JkS_G5Znk1qNWYGiz-71" edge="1">
          <mxGeometry relative="1" as="geometry" />
        </mxCell>
        <mxCell id="6i5JkS_G5Znk1qNWYGiz-93" style="edgeStyle=orthogonalEdgeStyle;rounded=0;orthogonalLoop=1;jettySize=auto;html=1;exitX=0;exitY=0.5;exitDx=0;exitDy=0;entryX=0.5;entryY=1;entryDx=0;entryDy=0;" parent="6i5JkS_G5Znk1qNWYGiz-157" source="6i5JkS_G5Znk1qNWYGiz-89" target="6i5JkS_G5Znk1qNWYGiz-68" edge="1">
          <mxGeometry relative="1" as="geometry" />
        </mxCell>
        <mxCell id="6i5JkS_G5Znk1qNWYGiz-94" value="&lt;div&gt;if &lt;i&gt;depth&lt;/i&gt; = 0&lt;/div&gt;&lt;div&gt;send &lt;i&gt;output&lt;/i&gt;&lt;/div&gt;" style="text;html=1;strokeColor=none;fillColor=none;align=center;verticalAlign=middle;whiteSpace=wrap;rounded=0;" parent="6i5JkS_G5Znk1qNWYGiz-157" vertex="1">
          <mxGeometry x="240" y="336.5" width="80" height="40" as="geometry" />
        </mxCell>
        <mxCell id="6i5JkS_G5Znk1qNWYGiz-121" value="Done" style="ellipse;whiteSpace=wrap;html=1;container=0;" parent="6i5JkS_G5Znk1qNWYGiz-157" vertex="1">
          <mxGeometry y="85" width="80" height="60" as="geometry" />
        </mxCell>
        <mxCell id="6i5JkS_G5Znk1qNWYGiz-122" style="edgeStyle=orthogonalEdgeStyle;rounded=0;orthogonalLoop=1;jettySize=auto;html=1;exitX=0;exitY=0.5;exitDx=0;exitDy=0;fontSize=12;" parent="6i5JkS_G5Znk1qNWYGiz-157" source="6i5JkS_G5Znk1qNWYGiz-64" target="6i5JkS_G5Znk1qNWYGiz-121" edge="1">
          <mxGeometry relative="1" as="geometry" />
        </mxCell>
        <mxCell id="6i5JkS_G5Znk1qNWYGiz-156" style="edgeStyle=orthogonalEdgeStyle;rounded=0;orthogonalLoop=1;jettySize=auto;html=1;entryX=0.5;entryY=0;entryDx=0;entryDy=0;fontSize=12;" parent="6i5JkS_G5Znk1qNWYGiz-157" source="6i5JkS_G5Znk1qNWYGiz-155" target="6i5JkS_G5Znk1qNWYGiz-64" edge="1">
          <mxGeometry relative="1" as="geometry" />
        </mxCell>
        <mxCell id="6i5JkS_G5Znk1qNWYGiz-155" value="entry" style="text;html=1;strokeColor=none;fillColor=none;align=center;verticalAlign=middle;whiteSpace=wrap;rounded=0;fontSize=12;" parent="6i5JkS_G5Znk1qNWYGiz-157" vertex="1">
          <mxGeometry x="160" width="60" height="30" as="geometry" />
        </mxCell>
        <mxCell id="6i5JkS_G5Znk1qNWYGiz-158" value="" style="group" parent="1" vertex="1" connectable="0">
          <mxGeometry x="300" y="450" width="1120" height="450" as="geometry" />
        </mxCell>
        <mxCell id="6i5JkS_G5Znk1qNWYGiz-54" value="" style="group" parent="6i5JkS_G5Znk1qNWYGiz-158" vertex="1" connectable="0">
          <mxGeometry x="120" width="600" height="430" as="geometry" />
        </mxCell>
        <mxCell id="6i5JkS_G5Znk1qNWYGiz-26" value="" style="rounded=0;whiteSpace=wrap;html=1;movable=1;resizable=1;rotatable=1;deletable=1;editable=1;connectable=1;container=0;" parent="6i5JkS_G5Znk1qNWYGiz-54" vertex="1">
          <mxGeometry width="600" height="430" as="geometry" />
        </mxCell>
        <mxCell id="6i5JkS_G5Znk1qNWYGiz-9" style="edgeStyle=orthogonalEdgeStyle;rounded=0;orthogonalLoop=1;jettySize=auto;html=1;exitX=1;exitY=0.5;exitDx=0;exitDy=0;entryX=0;entryY=0.5;entryDx=0;entryDy=0;" parent="6i5JkS_G5Znk1qNWYGiz-54" source="6i5JkS_G5Znk1qNWYGiz-2" target="6i5JkS_G5Znk1qNWYGiz-7" edge="1">
          <mxGeometry relative="1" as="geometry" />
        </mxCell>
        <mxCell id="6i5JkS_G5Znk1qNWYGiz-8" value="LeftBracket" style="ellipse;whiteSpace=wrap;html=1;container=0;" parent="6i5JkS_G5Znk1qNWYGiz-54" vertex="1">
          <mxGeometry x="480" y="160" width="80" height="60" as="geometry" />
        </mxCell>
        <mxCell id="6i5JkS_G5Znk1qNWYGiz-10" style="edgeStyle=orthogonalEdgeStyle;rounded=0;orthogonalLoop=1;jettySize=auto;html=1;exitX=1;exitY=0.5;exitDx=0;exitDy=0;entryX=0;entryY=0.5;entryDx=0;entryDy=0;" parent="6i5JkS_G5Znk1qNWYGiz-54" source="6i5JkS_G5Znk1qNWYGiz-7" target="6i5JkS_G5Znk1qNWYGiz-8" edge="1">
          <mxGeometry relative="1" as="geometry" />
        </mxCell>
        <mxCell id="6i5JkS_G5Znk1qNWYGiz-13" style="edgeStyle=orthogonalEdgeStyle;rounded=0;orthogonalLoop=1;jettySize=auto;html=1;entryX=0.5;entryY=1;entryDx=0;entryDy=0;" parent="6i5JkS_G5Znk1qNWYGiz-54" source="6i5JkS_G5Znk1qNWYGiz-7" target="6i5JkS_G5Znk1qNWYGiz-12" edge="1">
          <mxGeometry relative="1" as="geometry" />
        </mxCell>
        <mxCell id="6i5JkS_G5Znk1qNWYGiz-19" style="edgeStyle=orthogonalEdgeStyle;rounded=0;orthogonalLoop=1;jettySize=auto;html=1;exitX=0;exitY=0;exitDx=0;exitDy=0;entryX=1;entryY=0;entryDx=0;entryDy=0;" parent="6i5JkS_G5Znk1qNWYGiz-54" source="6i5JkS_G5Znk1qNWYGiz-2" target="6i5JkS_G5Znk1qNWYGiz-18" edge="1">
          <mxGeometry relative="1" as="geometry" />
        </mxCell>
        <mxCell id="6i5JkS_G5Znk1qNWYGiz-14" style="edgeStyle=orthogonalEdgeStyle;rounded=0;orthogonalLoop=1;jettySize=auto;html=1;entryX=0.5;entryY=0;entryDx=0;entryDy=0;" parent="6i5JkS_G5Znk1qNWYGiz-54" source="6i5JkS_G5Znk1qNWYGiz-12" target="6i5JkS_G5Znk1qNWYGiz-18" edge="1">
          <mxGeometry relative="1" as="geometry" />
        </mxCell>
        <mxCell id="6i5JkS_G5Znk1qNWYGiz-25" value="ParseText" style="text;html=1;strokeColor=none;fillColor=none;align=center;verticalAlign=middle;whiteSpace=wrap;rounded=0;container=0;" parent="6i5JkS_G5Znk1qNWYGiz-54" vertex="1">
          <mxGeometry x="30" y="2" width="60" height="30" as="geometry" />
        </mxCell>
        <mxCell id="6i5JkS_G5Znk1qNWYGiz-32" style="edgeStyle=orthogonalEdgeStyle;rounded=0;orthogonalLoop=1;jettySize=auto;html=1;exitX=0.5;exitY=1;exitDx=0;exitDy=0;" parent="6i5JkS_G5Znk1qNWYGiz-54" source="6i5JkS_G5Znk1qNWYGiz-30" edge="1">
          <mxGeometry relative="1" as="geometry">
            <mxPoint x="220" y="160" as="targetPoint" />
          </mxGeometry>
        </mxCell>
        <mxCell id="6i5JkS_G5Znk1qNWYGiz-33" value="if &lt;i&gt;c&lt;/i&gt; is &#39;$&#39;" style="text;html=1;strokeColor=none;fillColor=none;align=center;verticalAlign=middle;whiteSpace=wrap;rounded=0;container=0;" parent="6i5JkS_G5Znk1qNWYGiz-54" vertex="1">
          <mxGeometry x="260" y="190" width="60" height="30" as="geometry" />
        </mxCell>
        <mxCell id="6i5JkS_G5Znk1qNWYGiz-34" value="if &lt;i&gt;c&lt;/i&gt; is &#39;{&#39;" style="text;html=1;strokeColor=none;fillColor=none;align=center;verticalAlign=middle;whiteSpace=wrap;rounded=0;container=0;" parent="6i5JkS_G5Znk1qNWYGiz-54" vertex="1">
          <mxGeometry x="401" y="190" width="60" height="30" as="geometry" />
        </mxCell>
        <mxCell id="6i5JkS_G5Znk1qNWYGiz-35" value="if not &#39;{&#39; send &lt;i&gt;c&lt;/i&gt;" style="text;html=1;strokeColor=none;fillColor=none;align=center;verticalAlign=middle;whiteSpace=wrap;rounded=0;container=0;" parent="6i5JkS_G5Znk1qNWYGiz-54" vertex="1">
          <mxGeometry x="355" y="110" width="60" height="30" as="geometry" />
        </mxCell>
        <mxCell id="6i5JkS_G5Znk1qNWYGiz-36" value="send &lt;i&gt;c&lt;/i&gt;" style="text;html=1;strokeColor=none;fillColor=none;align=center;verticalAlign=middle;whiteSpace=wrap;rounded=0;container=0;" parent="6i5JkS_G5Znk1qNWYGiz-54" vertex="1">
          <mxGeometry x="98" y="40" width="60" height="30" as="geometry" />
        </mxCell>
        <mxCell id="6i5JkS_G5Znk1qNWYGiz-37" value="if &lt;i&gt;c&lt;/i&gt; is not &#39;$&#39;&lt;br&gt;&lt;div&gt;send &lt;i&gt;c&lt;/i&gt;&lt;/div&gt;" style="text;html=1;strokeColor=none;fillColor=none;align=center;verticalAlign=middle;whiteSpace=wrap;rounded=0;container=0;" parent="6i5JkS_G5Znk1qNWYGiz-54" vertex="1">
          <mxGeometry x="110" y="130" width="70" height="30" as="geometry" />
        </mxCell>
        <mxCell id="6i5JkS_G5Znk1qNWYGiz-80" value="" style="group" parent="6i5JkS_G5Znk1qNWYGiz-54" vertex="1" connectable="0">
          <mxGeometry x="180" y="150" width="80" height="70" as="geometry" />
        </mxCell>
        <mxCell id="6i5JkS_G5Znk1qNWYGiz-2" value="&lt;div&gt;GetChar&lt;/div&gt;" style="ellipse;whiteSpace=wrap;html=1;container=0;" parent="6i5JkS_G5Znk1qNWYGiz-80" vertex="1">
          <mxGeometry y="10" width="80" height="60" as="geometry" />
        </mxCell>
        <mxCell id="6i5JkS_G5Znk1qNWYGiz-40" value="&lt;div&gt;&lt;br&gt;&lt;/div&gt;&lt;div&gt;&lt;i&gt;c&lt;/i&gt;&lt;/div&gt;" style="shape=note;whiteSpace=wrap;html=1;backgroundOutline=1;darkOpacity=0.05;size=12;container=0;" parent="6i5JkS_G5Znk1qNWYGiz-80" vertex="1">
          <mxGeometry x="56" width="24" height="30" as="geometry" />
        </mxCell>
        <mxCell id="6i5JkS_G5Znk1qNWYGiz-81" value="" style="group" parent="6i5JkS_G5Znk1qNWYGiz-54" vertex="1" connectable="0">
          <mxGeometry x="24" y="160" width="86" height="73" as="geometry" />
        </mxCell>
        <mxCell id="6i5JkS_G5Znk1qNWYGiz-18" value="Append" style="ellipse;whiteSpace=wrap;html=1;container=0;" parent="6i5JkS_G5Znk1qNWYGiz-81" vertex="1">
          <mxGeometry x="6" width="80" height="60" as="geometry" />
        </mxCell>
        <mxCell id="6i5JkS_G5Znk1qNWYGiz-45" value="&lt;i&gt;c&lt;/i&gt;" style="shape=step;perimeter=stepPerimeter;whiteSpace=wrap;html=1;fixedSize=1;size=10.000000000000227;container=0;" parent="6i5JkS_G5Znk1qNWYGiz-81" vertex="1">
          <mxGeometry y="43" width="40" height="30" as="geometry" />
        </mxCell>
        <mxCell id="6i5JkS_G5Znk1qNWYGiz-82" value="" style="group" parent="6i5JkS_G5Znk1qNWYGiz-54" vertex="1" connectable="0">
          <mxGeometry x="320" y="150" width="80" height="70" as="geometry" />
        </mxCell>
        <mxCell id="6i5JkS_G5Znk1qNWYGiz-7" value="&lt;div&gt;Dollar&lt;/div&gt;" style="ellipse;whiteSpace=wrap;html=1;container=0;" parent="6i5JkS_G5Znk1qNWYGiz-82" vertex="1">
          <mxGeometry y="10" width="80" height="60" as="geometry" />
        </mxCell>
        <mxCell id="6i5JkS_G5Znk1qNWYGiz-41" value="&lt;div&gt;&lt;br&gt;&lt;/div&gt;&lt;div&gt;&lt;i&gt;c&lt;/i&gt;&lt;/div&gt;" style="shape=note;whiteSpace=wrap;html=1;backgroundOutline=1;darkOpacity=0.05;size=12;container=0;" parent="6i5JkS_G5Znk1qNWYGiz-82" vertex="1">
          <mxGeometry x="56" width="24" height="30" as="geometry" />
        </mxCell>
        <mxCell id="6i5JkS_G5Znk1qNWYGiz-83" value="" style="group" parent="6i5JkS_G5Znk1qNWYGiz-54" vertex="1" connectable="0">
          <mxGeometry x="304" y="40" width="111" height="74" as="geometry" />
        </mxCell>
        <mxCell id="6i5JkS_G5Znk1qNWYGiz-12" value="AppendDollar" style="ellipse;whiteSpace=wrap;html=1;container=0;" parent="6i5JkS_G5Znk1qNWYGiz-83" vertex="1">
          <mxGeometry x="1" width="110" height="60" as="geometry" />
        </mxCell>
        <mxCell id="6i5JkS_G5Znk1qNWYGiz-44" value="&#39;$&#39;" style="shape=step;perimeter=stepPerimeter;whiteSpace=wrap;html=1;fixedSize=1;size=10.000000000000227;container=0;" parent="6i5JkS_G5Znk1qNWYGiz-83" vertex="1">
          <mxGeometry y="44" width="40" height="30" as="geometry" />
        </mxCell>
        <mxCell id="6i5JkS_G5Znk1qNWYGiz-120" value="&lt;font style=&quot;font-size: 12px;&quot;&gt;if None&lt;br&gt;&lt;/font&gt;" style="text;html=1;strokeColor=none;fillColor=none;align=center;verticalAlign=middle;whiteSpace=wrap;rounded=0;fontSize=24;" parent="6i5JkS_G5Znk1qNWYGiz-54" vertex="1">
          <mxGeometry x="70" y="246" width="60" height="24" as="geometry" />
        </mxCell>
        <mxCell id="6i5JkS_G5Znk1qNWYGiz-123" value="" style="group" parent="6i5JkS_G5Znk1qNWYGiz-54" vertex="1" connectable="0">
          <mxGeometry x="46" y="350" width="164" height="40" as="geometry" />
        </mxCell>
        <mxCell id="6i5JkS_G5Znk1qNWYGiz-42" value="States marked with this icon consumes a character &lt;i&gt;c&lt;/i&gt; from input." style="text;html=1;strokeColor=none;fillColor=none;align=left;verticalAlign=middle;whiteSpace=wrap;rounded=0;container=0;" parent="6i5JkS_G5Znk1qNWYGiz-123" vertex="1">
          <mxGeometry x="34" width="130" height="40" as="geometry" />
        </mxCell>
        <mxCell id="6i5JkS_G5Znk1qNWYGiz-43" value="&lt;div&gt;&lt;br&gt;&lt;/div&gt;&lt;div&gt;&lt;i&gt;c&lt;/i&gt;&lt;/div&gt;" style="shape=note;whiteSpace=wrap;html=1;backgroundOutline=1;darkOpacity=0.05;size=12;container=0;" parent="6i5JkS_G5Znk1qNWYGiz-123" vertex="1">
          <mxGeometry y="5" width="24" height="30" as="geometry" />
        </mxCell>
        <mxCell id="6i5JkS_G5Znk1qNWYGiz-128" value="" style="group" parent="6i5JkS_G5Znk1qNWYGiz-54" vertex="1" connectable="0">
          <mxGeometry x="236" y="340" width="180" height="60" as="geometry" />
        </mxCell>
        <mxCell id="6i5JkS_G5Znk1qNWYGiz-46" value="&lt;div&gt;States marked with this icon appends a character &lt;i&gt;c&lt;/i&gt; to &lt;i&gt;output.&lt;/i&gt;&lt;br&gt;&lt;/div&gt;" style="text;html=1;strokeColor=none;fillColor=none;align=left;verticalAlign=middle;whiteSpace=wrap;rounded=0;container=0;" parent="6i5JkS_G5Znk1qNWYGiz-128" vertex="1">
          <mxGeometry x="50" width="130" height="60" as="geometry" />
        </mxCell>
        <mxCell id="6i5JkS_G5Znk1qNWYGiz-48" value="&lt;i&gt;c&lt;/i&gt;" style="shape=step;perimeter=stepPerimeter;whiteSpace=wrap;html=1;fixedSize=1;size=10.000000000000227;container=0;" parent="6i5JkS_G5Znk1qNWYGiz-128" vertex="1">
          <mxGeometry y="15" width="40" height="30" as="geometry" />
        </mxCell>
        <mxCell id="6i5JkS_G5Znk1qNWYGiz-146" style="edgeStyle=orthogonalEdgeStyle;rounded=0;orthogonalLoop=1;jettySize=auto;html=1;exitX=1;exitY=0.5;exitDx=0;exitDy=0;fontSize=12;" parent="6i5JkS_G5Znk1qNWYGiz-54" source="6i5JkS_G5Znk1qNWYGiz-18" target="6i5JkS_G5Znk1qNWYGiz-2" edge="1">
          <mxGeometry relative="1" as="geometry" />
        </mxCell>
        <mxCell id="6i5JkS_G5Znk1qNWYGiz-55" value="send &lt;i&gt;output&lt;/i&gt;" style="text;html=1;strokeColor=none;fillColor=none;align=center;verticalAlign=middle;whiteSpace=wrap;rounded=0;" parent="6i5JkS_G5Znk1qNWYGiz-158" vertex="1">
          <mxGeometry x="780" y="160" width="70" height="30" as="geometry" />
        </mxCell>
        <mxCell id="6i5JkS_G5Znk1qNWYGiz-57" value="StoreTextChunk" style="ellipse;whiteSpace=wrap;html=1;" parent="6i5JkS_G5Znk1qNWYGiz-158" vertex="1">
          <mxGeometry x="980" y="150" width="120" height="80" as="geometry" />
        </mxCell>
        <mxCell id="6i5JkS_G5Znk1qNWYGiz-58" style="edgeStyle=orthogonalEdgeStyle;rounded=0;orthogonalLoop=1;jettySize=auto;html=1;exitX=1;exitY=0.5;exitDx=0;exitDy=0;" parent="6i5JkS_G5Znk1qNWYGiz-158" source="6i5JkS_G5Znk1qNWYGiz-8" target="6i5JkS_G5Znk1qNWYGiz-57" edge="1">
          <mxGeometry relative="1" as="geometry" />
        </mxCell>
        <mxCell id="6i5JkS_G5Znk1qNWYGiz-148" style="edgeStyle=orthogonalEdgeStyle;rounded=0;orthogonalLoop=1;jettySize=auto;html=1;exitX=0;exitY=0.5;exitDx=0;exitDy=0;entryX=0.5;entryY=1;entryDx=0;entryDy=0;fontSize=12;" parent="6i5JkS_G5Znk1qNWYGiz-158" source="6i5JkS_G5Znk1qNWYGiz-59" target="6i5JkS_G5Znk1qNWYGiz-2" edge="1">
          <mxGeometry relative="1" as="geometry" />
        </mxCell>
        <mxCell id="6i5JkS_G5Znk1qNWYGiz-59" value="StoreCommandChunk" style="ellipse;whiteSpace=wrap;html=1;" parent="6i5JkS_G5Znk1qNWYGiz-158" vertex="1">
          <mxGeometry x="760" y="270" width="140" height="80" as="geometry" />
        </mxCell>
        <mxCell id="6i5JkS_G5Znk1qNWYGiz-61" value="send &lt;i&gt;output&lt;/i&gt;" style="text;html=1;strokeColor=none;fillColor=none;align=center;verticalAlign=middle;whiteSpace=wrap;rounded=0;" parent="6i5JkS_G5Znk1qNWYGiz-158" vertex="1">
          <mxGeometry x="920" y="280" width="70" height="30" as="geometry" />
        </mxCell>
        <mxCell id="6i5JkS_G5Znk1qNWYGiz-72" value="NoClosingBracket" style="ellipse;whiteSpace=wrap;html=1;" parent="6i5JkS_G5Znk1qNWYGiz-158" vertex="1">
          <mxGeometry x="860" y="370" width="120" height="80" as="geometry" />
        </mxCell>
        <mxCell id="6i5JkS_G5Znk1qNWYGiz-118" value="Done" style="ellipse;whiteSpace=wrap;html=1;container=0;" parent="6i5JkS_G5Znk1qNWYGiz-158" vertex="1">
          <mxGeometry y="240" width="80" height="60" as="geometry" />
        </mxCell>
        <mxCell id="6i5JkS_G5Znk1qNWYGiz-147" style="edgeStyle=orthogonalEdgeStyle;rounded=0;orthogonalLoop=1;jettySize=auto;html=1;exitX=0;exitY=1;exitDx=0;exitDy=0;entryX=1;entryY=0.5;entryDx=0;entryDy=0;fontSize=12;" parent="6i5JkS_G5Znk1qNWYGiz-158" source="6i5JkS_G5Znk1qNWYGiz-2" target="6i5JkS_G5Znk1qNWYGiz-118" edge="1">
          <mxGeometry relative="1" as="geometry">
            <Array as="points">
              <mxPoint x="311" y="270" />
            </Array>
          </mxGeometry>
        </mxCell>
        <mxCell id="6i5JkS_G5Znk1qNWYGiz-152" style="edgeStyle=orthogonalEdgeStyle;rounded=0;orthogonalLoop=1;jettySize=auto;html=1;exitX=0;exitY=0.5;exitDx=0;exitDy=0;entryX=1;entryY=0.5;entryDx=0;entryDy=0;fontSize=12;" parent="6i5JkS_G5Znk1qNWYGiz-158" source="6i5JkS_G5Znk1qNWYGiz-149" target="6i5JkS_G5Znk1qNWYGiz-59" edge="1">
          <mxGeometry relative="1" as="geometry" />
        </mxCell>
        <mxCell id="6i5JkS_G5Znk1qNWYGiz-153" style="edgeStyle=orthogonalEdgeStyle;rounded=0;orthogonalLoop=1;jettySize=auto;html=1;exitX=0.5;exitY=1;exitDx=0;exitDy=0;entryX=1;entryY=0.5;entryDx=0;entryDy=0;fontSize=12;" parent="6i5JkS_G5Znk1qNWYGiz-158" source="6i5JkS_G5Znk1qNWYGiz-149" target="6i5JkS_G5Znk1qNWYGiz-72" edge="1">
          <mxGeometry relative="1" as="geometry" />
        </mxCell>
        <mxCell id="6i5JkS_G5Znk1qNWYGiz-149" value="ParseCommand" style="rounded=0;whiteSpace=wrap;html=1;fontSize=12;" parent="6i5JkS_G5Znk1qNWYGiz-158" vertex="1">
          <mxGeometry x="1000" y="281" width="120" height="60" as="geometry" />
        </mxCell>
        <mxCell id="6i5JkS_G5Znk1qNWYGiz-151" style="edgeStyle=orthogonalEdgeStyle;rounded=0;orthogonalLoop=1;jettySize=auto;html=1;fontSize=12;" parent="6i5JkS_G5Znk1qNWYGiz-158" source="6i5JkS_G5Znk1qNWYGiz-57" target="6i5JkS_G5Znk1qNWYGiz-149" edge="1">
          <mxGeometry relative="1" as="geometry">
            <Array as="points">
              <mxPoint x="1040" y="265" />
              <mxPoint x="1040" y="265" />
            </Array>
          </mxGeometry>
        </mxCell>
        <mxCell id="6i5JkS_G5Znk1qNWYGiz-30" value="entry" style="text;html=1;strokeColor=none;fillColor=none;align=center;verticalAlign=middle;whiteSpace=wrap;rounded=0;container=0;" parent="1" vertex="1">
          <mxGeometry x="610" y="390" width="60" height="30" as="geometry" />
        </mxCell>
      </root>
    </mxGraphModel>
  </diagram>
</mxfile>
